<svg xmlns="http://www.w3.org/2000/svg" viewBox="0 0 64 32" width="64" height="32">
  <!-- Track -->
  <rect x="0" y="0" width="64" height="32" rx="16" fill="currentColor" opacity="0.15"/>
  <rect x="1" y="1" width="62" height="30" rx="15" fill="none" stroke="currentColor" stroke-width="1.5" opacity="0.4"/>

  <!-- Sun icon (left side — light mode indicator) -->
  <circle cx="16" cy="16" r="5" fill="currentColor" opacity="0.9"/>
  <line x1="16" y1="7" x2="16" y2="9" stroke="currentColor" stroke-width="1.5" stroke-linecap="round" opacity="0.9"/>
  <line x1="16" y1="23" x2="16" y2="25" stroke="currentColor" stroke-width="1.5" stroke-linecap="round" opacity="0.9"/>
  <line x1="7" y1="16" x2="9" y2="16" stroke="currentColor" stroke-width="1.5" stroke-linecap="round" opacity="0.9"/>
  <line x1="23" y1="16" x2="25" y2="16" stroke="currentColor" stroke-width="1.5" stroke-linecap="round" opacity="0.9"/>
  <line x1="9.93" y1="9.93" x2="11.34" y2="11.34" stroke="currentColor" stroke-width="1.5" stroke-linecap="round" opacity="0.9"/>
  <line x1="20.66" y1="20.66" x2="22.07" y2="22.07" stroke="currentColor" stroke-width="1.5" stroke-linecap="round" opacity="0.9"/>
  <line x1="22.07" y1="9.93" x2="20.66" y2="11.34" stroke="currentColor" stroke-width="1.5" stroke-linecap="round" opacity="0.9"/>
  <line x1="11.34" y1="20.66" x2="9.93" y2="22.07" stroke="currentColor" stroke-width="1.5" stroke-linecap="round" opacity="0.9"/>

  <!-- Moon icon (right side — dark mode indicator) -->
  <path d="M48 10 a8 8 0 1 0 8 8 a6 6 0 1 1-8-8z" fill="currentColor" opacity="0.9"/>
</svg>